<svg xmlns="http://www.w3.org/2000/svg" width="1920" height="1080"><path d="M-539,-606L678,-578L1824,-610Z" fill="#d5d5d5" stroke="#d5d5d5" stroke-width="1.51"/><path d="M885,-562L1174,-544L1824,-610Z" fill="#b6b6b6" stroke="#b6b6b6" stroke-width="1.51"/><path d="M678,-578L885,-562L1824,-610Z" fill="#bebebe" stroke="#bebebe" stroke-width="1.51"/><path d="M1779,1634L827,1735L2003,1709Z" fill="#393939" stroke="#393939" stroke-width="1.51"/><path d="M2106,-232L2264,213L2333,-312Z" fill="#777777" stroke="#777777" stroke-width="1.51"/><path d="M2255,1283L2286,1658L2517,1029Z" fill="#292929" stroke="#292929" stroke-width="1.51"/><path d="M1824,-610L2164,-400L2517,-455Z" fill="#858585" stroke="#858585" stroke-width="1.51"/><path d="M2264,213L1925,600L2541,393Z" fill="#5f5f5f" stroke="#5f5f5f" stroke-width="1.51"/><path d="M1974,840L2517,1029L2541,393Z" fill="#484848" stroke="#484848" stroke-width="1.51"/><path d="M1925,600L1974,840L2541,393Z" fill="#585858" stroke="#585858" stroke-width="1.51"/><path d="M2517,-455L2333,-312L2541,393Z" fill="#6d6d6d" stroke="#6d6d6d" stroke-width="1.51"/><path d="M2333,-312L2264,213L2541,393Z" fill="#686868" stroke="#686868" stroke-width="1.51"/><path d="M2111,1214L2255,1283L2517,1029Z" fill="#353535" stroke="#353535" stroke-width="1.51"/><path d="M1974,840L2111,1214L2517,1029Z" fill="#414141" stroke="#414141" stroke-width="1.51"/><path d="M2164,-400L2333,-312L2517,-455Z" fill="#7b7b7b" stroke="#7b7b7b" stroke-width="1.51"/><path d="M1955,238L1925,600L2264,213Z" fill="#6c6c6c" stroke="#6c6c6c" stroke-width="1.51"/><path d="M2106,-232L1955,238L2264,213Z" fill="#767676" stroke="#767676" stroke-width="1.51"/><path d="M2255,1283L2003,1709L2286,1658Z" fill="#222222" stroke="#222222" stroke-width="1.51"/><path d="M2164,-400L2106,-232L2333,-312Z" fill="#7f7f7f" stroke="#7f7f7f" stroke-width="1.51"/><path d="M2111,1214L2003,1709L2255,1283Z" fill="#2d2d2d" stroke="#2d2d2d" stroke-width="1.51"/><path d="M1733,106L1955,238L2106,-232Z" fill="#838383" stroke="#838383" stroke-width="1.51"/><path d="M1779,1634L2003,1709L2111,1214Z" fill="#2f2f2f" stroke="#2f2f2f" stroke-width="1.51"/><path d="M1824,-610L2106,-232L2164,-400Z" fill="#8c8c8c" stroke="#8c8c8c" stroke-width="1.51"/><path d="M1824,-610L1607,-172L2106,-232Z" fill="#969696" stroke="#969696" stroke-width="1.51"/><path d="M1607,-172L1733,106L2106,-232Z" fill="#909090" stroke="#909090" stroke-width="1.51"/><path d="M1974,840L1627,1273L2111,1214Z" fill="#4d4d4d" stroke="#4d4d4d" stroke-width="1.51"/><path d="M1627,1273L1779,1634L2111,1214Z" fill="#3f3f3f" stroke="#3f3f3f" stroke-width="1.51"/><path d="M1459,1493L827,1735L1779,1634Z" fill="#434343" stroke="#434343" stroke-width="1.51"/><path d="M1733,106L1925,600L1955,238Z" fill="#7a7a7a" stroke="#7a7a7a" stroke-width="1.51"/><path d="M1818,753L1627,1273L1974,840Z" fill="#5b5b5b" stroke="#5b5b5b" stroke-width="1.51"/><path d="M1925,600L1818,753L1974,840Z" fill="#616161" stroke="#616161" stroke-width="1.51"/><path d="M1733,106L1408,311L1925,600Z" fill="#828282" stroke="#828282" stroke-width="1.51"/><path d="M1408,311L1533,671L1925,600Z" fill="#7a7a7a" stroke="#7a7a7a" stroke-width="1.51"/><path d="M1362,1028L1627,1273L1818,753Z" fill="#606060" stroke="#606060" stroke-width="1.51"/><path d="M1533,671L1818,753L1925,600Z" fill="#6c6c6c" stroke="#6c6c6c" stroke-width="1.51"/><path d="M1627,1273L1459,1493L1779,1634Z" fill="#424242" stroke="#424242" stroke-width="1.51"/><path d="M1533,671L1362,1028L1818,753Z" fill="#6c6c6c" stroke="#6c6c6c" stroke-width="1.51"/><path d="M1174,-544L1607,-172L1824,-610Z" fill="#a9a9a9" stroke="#a9a9a9" stroke-width="1.51"/><path d="M1362,1028L1464,1271L1627,1273Z" fill="#5c5c5c" stroke="#5c5c5c" stroke-width="1.51"/><path d="M1607,-172L1408,311L1733,106Z" fill="#949494" stroke="#949494" stroke-width="1.51"/><path d="M1208,-229L1408,311L1607,-172Z" fill="#a0a0a0" stroke="#a0a0a0" stroke-width="1.51"/><path d="M1174,-544L1208,-229L1607,-172Z" fill="#aeaeae" stroke="#aeaeae" stroke-width="1.51"/><path d="M1464,1271L1459,1493L1627,1273Z" fill="#4e4e4e" stroke="#4e4e4e" stroke-width="1.51"/><path d="M-539,-606L333,-481L678,-578Z" fill="#e7e7e7" stroke="#e7e7e7" stroke-width="1.51"/><path d="M1408,311L1196,686L1533,671Z" fill="#838383" stroke="#838383" stroke-width="1.51"/><path d="M1196,686L1362,1028L1533,671Z" fill="#767676" stroke="#767676" stroke-width="1.51"/><path d="M1196,686L1093,890L1362,1028Z" fill="#797979" stroke="#797979" stroke-width="1.51"/><path d="M1208,-229L888,284L1408,311Z" fill="#a4a4a4" stroke="#a4a4a4" stroke-width="1.51"/><path d="M823,1247L1459,1493L1464,1271Z" fill="#5a5a5a" stroke="#5a5a5a" stroke-width="1.51"/><path d="M1362,1028L823,1247L1464,1271Z" fill="#686868" stroke="#686868" stroke-width="1.51"/><path d="M823,1247L827,1735L1459,1493Z" fill="#575757" stroke="#575757" stroke-width="1.51"/><path d="M944,485L1196,686L1408,311Z" fill="#8f8f8f" stroke="#8f8f8f" stroke-width="1.51"/><path d="M888,284L944,485L1408,311Z" fill="#9b9b9b" stroke="#9b9b9b" stroke-width="1.51"/><path d="M823,1247L722,1504L827,1735Z" fill="#616161" stroke="#616161" stroke-width="1.51"/><path d="M953,-235L888,284L1208,-229Z" fill="#b3b3b3" stroke="#b3b3b3" stroke-width="1.51"/><path d="M1093,890L823,1247L1362,1028Z" fill="#747474" stroke="#747474" stroke-width="1.51"/><path d="M-539,-606L-257,-488L333,-481Z" fill="#f0f0f0" stroke="#f0f0f0" stroke-width="1.51"/><path d="M885,-562L953,-235L1174,-544Z" fill="#c1c1c1" stroke="#c1c1c1" stroke-width="1.51"/><path d="M1174,-544L953,-235L1208,-229Z" fill="#b9b9b9" stroke="#b9b9b9" stroke-width="1.51"/><path d="M944,485L1093,890L1196,686Z" fill="#888888" stroke="#888888" stroke-width="1.51"/><path d="M944,485L736,794L1093,890Z" fill="#8d8d8d" stroke="#8d8d8d" stroke-width="1.51"/><path d="M746,603L736,794L944,485Z" fill="#989898" stroke="#989898" stroke-width="1.51"/><path d="M634,61L888,284L953,-235Z" fill="#b8b8b8" stroke="#b8b8b8" stroke-width="1.51"/><path d="M626,-49L634,61L953,-235Z" fill="#c1c1c1" stroke="#c1c1c1" stroke-width="1.51"/><path d="M695,1151L823,1247L1093,890Z" fill="#7b7b7b" stroke="#7b7b7b" stroke-width="1.51"/><path d="M736,794L695,1151L1093,890Z" fill="#848484" stroke="#848484" stroke-width="1.51"/><path d="M888,284L746,603L944,485Z" fill="#a0a0a0" stroke="#a0a0a0" stroke-width="1.51"/><path d="M885,-562L678,-578L953,-235Z" fill="#cacaca" stroke="#cacaca" stroke-width="1.51"/><path d="M678,-578L626,-49L953,-235Z" fill="#c8c8c8" stroke="#c8c8c8" stroke-width="1.51"/><path d="M634,61L746,603L888,284Z" fill="#adadad" stroke="#adadad" stroke-width="1.51"/><path d="M333,-481L626,-49L678,-578Z" fill="#d5d5d5" stroke="#d5d5d5" stroke-width="1.51"/><path d="M634,61L254,457L746,603Z" fill="#b4b4b4" stroke="#b4b4b4" stroke-width="1.51"/><path d="M695,1151L722,1504L823,1247Z" fill="#727272" stroke="#727272" stroke-width="1.51"/><path d="M722,1504L93,1670L827,1735Z" fill="#646464" stroke="#646464" stroke-width="1.51"/><path d="M695,1151L197,1298L722,1504Z" fill="#7a7a7a" stroke="#7a7a7a" stroke-width="1.51"/><path d="M381,995L695,1151L736,794Z" fill="#8e8e8e" stroke="#8e8e8e" stroke-width="1.51"/><path d="M254,457L381,995L736,794Z" fill="#a1a1a1" stroke="#a1a1a1" stroke-width="1.51"/><path d="M254,457L736,794L746,603Z" fill="#a4a4a4" stroke="#a4a4a4" stroke-width="1.51"/><path d="M197,1298L93,1670L722,1504Z" fill="#727272" stroke="#727272" stroke-width="1.51"/><path d="M381,995L197,1298L695,1151Z" fill="#8b8b8b" stroke="#8b8b8b" stroke-width="1.51"/><path d="M333,-481L175,-125L626,-49Z" fill="#d5d5d5" stroke="#d5d5d5" stroke-width="1.51"/><path d="M144,197L254,457L634,61Z" fill="#c3c3c3" stroke="#c3c3c3" stroke-width="1.51"/><path d="M626,-49L175,-125L634,61Z" fill="#cbcbcb" stroke="#cbcbcb" stroke-width="1.51"/><path d="M175,-125L144,197L634,61Z" fill="#cdcdcd" stroke="#cdcdcd" stroke-width="1.51"/><path d="M-118,644L-67,900L254,457Z" fill="#b3b3b3" stroke="#b3b3b3" stroke-width="1.51"/><path d="M254,457L-67,900L381,995Z" fill="#a7a7a7" stroke="#a7a7a7" stroke-width="1.51"/><path d="M-67,900L197,1298L381,995Z" fill="#989898" stroke="#989898" stroke-width="1.51"/><path d="M-67,900L-134,1126L197,1298Z" fill="#9a9a9a" stroke="#9a9a9a" stroke-width="1.51"/><path d="M-38,-224L175,-125L333,-481Z" fill="#e0e0e0" stroke="#e0e0e0" stroke-width="1.51"/><path d="M-257,-488L-38,-224L333,-481Z" fill="#e8e8e8" stroke="#e8e8e8" stroke-width="1.51"/><path d="M144,197L-207,307L254,457Z" fill="#c7c7c7" stroke="#c7c7c7" stroke-width="1.51"/><path d="M-207,307L-118,644L254,457Z" fill="#c0c0c0" stroke="#c0c0c0" stroke-width="1.51"/><path d="M-38,-224L144,197L175,-125Z" fill="#d8d8d8" stroke="#d8d8d8" stroke-width="1.51"/><path d="M-208,1626L93,1670L197,1298Z" fill="#797979" stroke="#797979" stroke-width="1.51"/><path d="M-134,1126L-208,1626L197,1298Z" fill="#898989" stroke="#898989" stroke-width="1.51"/><path d="M-38,-224L-207,307L144,197Z" fill="#d6d6d6" stroke="#d6d6d6" stroke-width="1.51"/><path d="M-429,1199L-208,1626L-134,1126Z" fill="#919191" stroke="#919191" stroke-width="1.51"/><path d="M-257,-488L-536,-300L-38,-224Z" fill="#eeeeee" stroke="#eeeeee" stroke-width="1.51"/><path d="M-499,263L-207,307L-38,-224Z" fill="#dbdbdb" stroke="#dbdbdb" stroke-width="1.51"/><path d="M-536,-300L-499,263L-38,-224Z" fill="#e6e6e6" stroke="#e6e6e6" stroke-width="1.51"/><path d="M-429,1199L-536,1483L-208,1626Z" fill="#898989" stroke="#898989" stroke-width="1.51"/><path d="M-429,1199L-134,1126L-67,900Z" fill="#a1a1a1" stroke="#a1a1a1" stroke-width="1.51"/><path d="M-628,791L-429,1199L-67,900Z" fill="#ababab" stroke="#ababab" stroke-width="1.51"/><path d="M-118,644L-628,791L-67,900Z" fill="#b4b4b4" stroke="#b4b4b4" stroke-width="1.51"/><path d="M-524,564L-628,791L-118,644Z" fill="#bebebe" stroke="#bebebe" stroke-width="1.51"/><path d="M-207,307L-524,564L-118,644Z" fill="#c5c5c5" stroke="#c5c5c5" stroke-width="1.51"/><path d="M-499,263L-524,564L-207,307Z" fill="#cfcfcf" stroke="#cfcfcf" stroke-width="1.51"/><path d="M-539,-606L-536,-300L-257,-488Z" fill="#f5f5f5" stroke="#f5f5f5" stroke-width="1.51"/><path d="M-628,791L-536,1483L-429,1199Z" fill="#a2a2a2" stroke="#a2a2a2" stroke-width="1.51"/><path d="M-628,791L-524,564L-499,263Z" fill="#c7c7c7" stroke="#c7c7c7" stroke-width="1.51"/><path d="M-536,-300L-628,791L-499,263Z" fill="#dadada" stroke="#dadada" stroke-width="1.51"/><path d="M-539,-606L-628,791L-536,-300Z" fill="#e8e8e8" stroke="#e8e8e8" stroke-width="1.51"/></svg>