<svg xmlns="http://www.w3.org/2000/svg" width="1920" height="100"><path d="M-119,-138L-4,-137L359,-149Z" fill="#f6f6f6" stroke="#f6f6f6" stroke-width="1.51"/><path d="M371,251L-41,254L504,254Z" fill="#6f6f6f" stroke="#6f6f6f" stroke-width="1.51"/><path d="M359,-149L765,-134L1055,-157Z" fill="#d8d8d8" stroke="#d8d8d8" stroke-width="1.51"/><path d="M928,216L696,257L1255,245Z" fill="#505050" stroke="#505050" stroke-width="1.51"/><path d="M1259,-139L1474,-130L1740,-156Z" fill="#a3a3a3" stroke="#a3a3a3" stroke-width="1.51"/><path d="M1055,-157L1259,-139L1740,-156Z" fill="#adadad" stroke="#adadad" stroke-width="1.51"/><path d="M1255,245L696,257L1877,255Z" fill="#3a3a3a" stroke="#3a3a3a" stroke-width="1.51"/><path d="M1708,208L1423,228L1877,255Z" fill="#282828" stroke="#282828" stroke-width="1.51"/><path d="M1423,228L1255,245L1877,255Z" fill="#303030" stroke="#303030" stroke-width="1.51"/><path d="M1740,-156L1925,-110L2020,-103Z" fill="#7e7e7e" stroke="#7e7e7e" stroke-width="1.51"/><path d="M1916,236L1877,255L2024,242Z" fill="#131313" stroke="#131313" stroke-width="1.51"/><path d="M1997,96L1916,236L2024,242Z" fill="#222222" stroke="#222222" stroke-width="1.51"/><path d="M2017,-23L1952,75L2049,49Z" fill="#525252" stroke="#525252" stroke-width="1.51"/><path d="M1952,75L1997,96L2049,49Z" fill="#464646" stroke="#464646" stroke-width="1.51"/><path d="M1997,96L2024,242L2049,49Z" fill="#353535" stroke="#353535" stroke-width="1.51"/><path d="M2020,-103L2017,-23L2049,49Z" fill="#626262" stroke="#626262" stroke-width="1.51"/><path d="M1912,108L1916,236L1997,96Z" fill="#353535" stroke="#353535" stroke-width="1.51"/><path d="M1925,-110L1902,-61L2017,-23Z" fill="#707070" stroke="#707070" stroke-width="1.51"/><path d="M1925,-110L2017,-23L2020,-103Z" fill="#707070" stroke="#707070" stroke-width="1.51"/><path d="M1886,19L1952,75L2017,-23Z" fill="#585858" stroke="#585858" stroke-width="1.51"/><path d="M1902,-61L1886,19L2017,-23Z" fill="#676767" stroke="#676767" stroke-width="1.51"/><path d="M1912,108L1875,157L1916,236Z" fill="#303030" stroke="#303030" stroke-width="1.51"/><path d="M1952,75L1912,108L1997,96Z" fill="#434343" stroke="#434343" stroke-width="1.51"/><path d="M1740,-156L1845,-90L1925,-110Z" fill="#818181" stroke="#818181" stroke-width="1.51"/><path d="M1886,19L1912,108L1952,75Z" fill="#4d4d4d" stroke="#4d4d4d" stroke-width="1.51"/><path d="M1875,157L1877,255L1916,236Z" fill="#1d1d1d" stroke="#1d1d1d" stroke-width="1.51"/><path d="M1845,-90L1902,-61L1925,-110Z" fill="#787878" stroke="#787878" stroke-width="1.51"/><path d="M1794,207L1708,208L1877,255Z" fill="#212121" stroke="#212121" stroke-width="1.51"/><path d="M1814,0L1886,19L1902,-61Z" fill="#696969" stroke="#696969" stroke-width="1.51"/><path d="M1886,19L1814,0L1912,108Z" fill="#585858" stroke="#585858" stroke-width="1.51"/><path d="M1814,0L1875,157L1912,108Z" fill="#4a4a4a" stroke="#4a4a4a" stroke-width="1.51"/><path d="M1814,0L1729,105L1875,157Z" fill="#4e4e4e" stroke="#4e4e4e" stroke-width="1.51"/><path d="M1875,157L1794,207L1877,255Z" fill="#222222" stroke="#222222" stroke-width="1.51"/><path d="M1845,-90L1814,0L1902,-61Z" fill="#737373" stroke="#737373" stroke-width="1.51"/><path d="M1765,12L1729,105L1814,0Z" fill="#606060" stroke="#606060" stroke-width="1.51"/><path d="M1637,186L1423,228L1708,208Z" fill="#363636" stroke="#363636" stroke-width="1.51"/><path d="M1729,105L1794,207L1875,157Z" fill="#3a3a3a" stroke="#3a3a3a" stroke-width="1.51"/><path d="M1751,-57L1814,0L1845,-90Z" fill="#767676" stroke="#767676" stroke-width="1.51"/><path d="M1740,-156L1751,-57L1845,-90Z" fill="#828282" stroke="#828282" stroke-width="1.51"/><path d="M1474,-130L1589,-103L1740,-156Z" fill="#979797" stroke="#979797" stroke-width="1.51"/><path d="M1729,105L1712,142L1794,207Z" fill="#404040" stroke="#404040" stroke-width="1.51"/><path d="M1751,-57L1765,12L1814,0Z" fill="#707070" stroke="#707070" stroke-width="1.51"/><path d="M1495,189L1423,228L1637,186Z" fill="#3e3e3e" stroke="#3e3e3e" stroke-width="1.51"/><path d="M1712,142L1708,208L1794,207Z" fill="#323232" stroke="#323232" stroke-width="1.51"/><path d="M1589,-103L1654,-103L1740,-156Z" fill="#909090" stroke="#909090" stroke-width="1.51"/><path d="M1740,-156L1654,-103L1751,-57Z" fill="#898989" stroke="#898989" stroke-width="1.51"/><path d="M1672,54L1729,105L1765,12Z" fill="#5e5e5e" stroke="#5e5e5e" stroke-width="1.51"/><path d="M1751,-57L1644,-35L1765,12Z" fill="#787878" stroke="#787878" stroke-width="1.51"/><path d="M1644,-35L1672,54L1765,12Z" fill="#707070" stroke="#707070" stroke-width="1.51"/><path d="M1654,-103L1644,-35L1751,-57Z" fill="#858585" stroke="#858585" stroke-width="1.51"/><path d="M1672,54L1712,142L1729,105Z" fill="#525252" stroke="#525252" stroke-width="1.51"/><path d="M1593,89L1608,158L1672,54Z" fill="#595959" stroke="#595959" stroke-width="1.51"/><path d="M1672,54L1608,158L1712,142Z" fill="#515151" stroke="#515151" stroke-width="1.51"/><path d="M1608,158L1637,186L1712,142Z" fill="#444444" stroke="#444444" stroke-width="1.51"/><path d="M1637,186L1708,208L1712,142Z" fill="#393939" stroke="#393939" stroke-width="1.51"/><path d="M1644,-35L1604,-23L1672,54Z" fill="#797979" stroke="#797979" stroke-width="1.51"/><path d="M1604,-23L1593,89L1672,54Z" fill="#6c6c6c" stroke="#6c6c6c" stroke-width="1.51"/><path d="M1589,-103L1604,-23L1644,-35Z" fill="#898989" stroke="#898989" stroke-width="1.51"/><path d="M1589,-103L1644,-35L1654,-103Z" fill="#8c8c8c" stroke="#8c8c8c" stroke-width="1.51"/><path d="M1608,158L1533,157L1637,186Z" fill="#464646" stroke="#464646" stroke-width="1.51"/><path d="M1533,157L1495,189L1637,186Z" fill="#454545" stroke="#454545" stroke-width="1.51"/><path d="M1485,55L1593,89L1604,-23Z" fill="#727272" stroke="#727272" stroke-width="1.51"/><path d="M1540,-66L1485,55L1604,-23Z" fill="#858585" stroke="#858585" stroke-width="1.51"/><path d="M1589,-103L1540,-66L1604,-23Z" fill="#8e8e8e" stroke="#8e8e8e" stroke-width="1.51"/><path d="M1593,89L1533,157L1608,158Z" fill="#535353" stroke="#535353" stroke-width="1.51"/><path d="M1474,-130L1540,-66L1589,-103Z" fill="#999999" stroke="#999999" stroke-width="1.51"/><path d="M1485,55L1533,157L1593,89Z" fill="#616161" stroke="#616161" stroke-width="1.51"/><path d="M1259,-139L1350,-99L1474,-130Z" fill="#a9a9a9" stroke="#a9a9a9" stroke-width="1.51"/><path d="M1455,-29L1446,10L1485,55Z" fill="#848484" stroke="#848484" stroke-width="1.51"/><path d="M1485,55L1441,131L1533,157Z" fill="#606060" stroke="#606060" stroke-width="1.51"/><path d="M1474,-130L1461,-82L1540,-66Z" fill="#9b9b9b" stroke="#9b9b9b" stroke-width="1.51"/><path d="M1455,-29L1485,55L1540,-66Z" fill="#898989" stroke="#898989" stroke-width="1.51"/><path d="M1461,-82L1455,-29L1540,-66Z" fill="#959595" stroke="#959595" stroke-width="1.51"/><path d="M1441,131L1495,189L1533,157Z" fill="#525252" stroke="#525252" stroke-width="1.51"/><path d="M1378,214L1255,245L1423,228Z" fill="#3e3e3e" stroke="#3e3e3e" stroke-width="1.51"/><path d="M1441,131L1423,228L1495,189Z" fill="#4a4a4a" stroke="#4a4a4a" stroke-width="1.51"/><path d="M1446,10L1379,72L1485,55Z" fill="#797979" stroke="#797979" stroke-width="1.51"/><path d="M1379,72L1441,131L1485,55Z" fill="#6c6c6c" stroke="#6c6c6c" stroke-width="1.51"/><path d="M1350,-99L1461,-82L1474,-130Z" fill="#a2a2a2" stroke="#a2a2a2" stroke-width="1.51"/><path d="M1378,214L1423,228L1441,131Z" fill="#484848" stroke="#484848" stroke-width="1.51"/><path d="M1350,-99L1339,-44L1455,-29Z" fill="#9b9b9b" stroke="#9b9b9b" stroke-width="1.51"/><path d="M1350,-99L1455,-29L1461,-82Z" fill="#9b9b9b" stroke="#9b9b9b" stroke-width="1.51"/><path d="M359,-149L616,-117L765,-134Z" fill="#dfdfdf" stroke="#dfdfdf" stroke-width="1.51"/><path d="M1339,-44L1446,10L1455,-29Z" fill="#909090" stroke="#909090" stroke-width="1.51"/><path d="M1339,-44L1379,72L1446,10Z" fill="#888888" stroke="#888888" stroke-width="1.51"/><path d="M1057,192L928,216L1255,245Z" fill="#515151" stroke="#515151" stroke-width="1.51"/><path d="M1379,72L1378,214L1441,131Z" fill="#5d5d5d" stroke="#5d5d5d" stroke-width="1.51"/><path d="M1310,103L1378,214L1379,72Z" fill="#636363" stroke="#636363" stroke-width="1.51"/><path d="M1310,103L1297,111L1378,214Z" fill="#616161" stroke="#616161" stroke-width="1.51"/><path d="M1297,111L1255,245L1378,214Z" fill="#4f4f4f" stroke="#4f4f4f" stroke-width="1.51"/><path d="M1272,19L1310,103L1379,72Z" fill="#7a7a7a" stroke="#7a7a7a" stroke-width="1.51"/><path d="M1286,-5L1272,19L1379,72Z" fill="#878787" stroke="#878787" stroke-width="1.51"/><path d="M1339,-44L1286,-5L1379,72Z" fill="#8d8d8d" stroke="#8d8d8d" stroke-width="1.51"/><path d="M1259,-139L1339,-44L1350,-99Z" fill="#a7a7a7" stroke="#a7a7a7" stroke-width="1.51"/><path d="M1259,-139L1286,-5L1339,-44Z" fill="#a2a2a2" stroke="#a2a2a2" stroke-width="1.51"/><path d="M1169,195L1057,192L1255,245Z" fill="#4e4e4e" stroke="#4e4e4e" stroke-width="1.51"/><path d="M1167,163L1169,195L1255,245Z" fill="#505050" stroke="#505050" stroke-width="1.51"/><path d="M1055,-157L1135,-109L1259,-139Z" fill="#b9b9b9" stroke="#b9b9b9" stroke-width="1.51"/><path d="M1167,163L1255,245L1297,111Z" fill="#5a5a5a" stroke="#5a5a5a" stroke-width="1.51"/><path d="M1272,19L1297,111L1310,103Z" fill="#787878" stroke="#787878" stroke-width="1.51"/><path d="M1259,-139L1141,-25L1286,-5Z" fill="#a5a5a5" stroke="#a5a5a5" stroke-width="1.51"/><path d="M1272,19L1172,45L1297,111Z" fill="#818181" stroke="#818181" stroke-width="1.51"/><path d="M1172,45L1167,163L1297,111Z" fill="#737373" stroke="#737373" stroke-width="1.51"/><path d="M1135,-109L1141,-25L1259,-139Z" fill="#afafaf" stroke="#afafaf" stroke-width="1.51"/><path d="M1141,-25L1272,19L1286,-5Z" fill="#979797" stroke="#979797" stroke-width="1.51"/><path d="M1141,-25L1172,45L1272,19Z" fill="#949494" stroke="#949494" stroke-width="1.51"/><path d="M277,237L92,235L371,251Z" fill="#737373" stroke="#737373" stroke-width="1.51"/><path d="M92,235L-41,254L371,251Z" fill="#757575" stroke="#757575" stroke-width="1.51"/><path d="M765,-134L1007,-131L1055,-157Z" fill="#c7c7c7" stroke="#c7c7c7" stroke-width="1.51"/><path d="M988,191L928,216L1057,192Z" fill="#5d5d5d" stroke="#5d5d5d" stroke-width="1.51"/><path d="M1125,50L1075,171L1167,163Z" fill="#727272" stroke="#727272" stroke-width="1.51"/><path d="M1075,171L1057,192L1169,195Z" fill="#5d5d5d" stroke="#5d5d5d" stroke-width="1.51"/><path d="M1125,50L1167,163L1172,45Z" fill="#7d7d7d" stroke="#7d7d7d" stroke-width="1.51"/><path d="M1141,-25L1125,50L1172,45Z" fill="#939393" stroke="#939393" stroke-width="1.51"/><path d="M1167,163L1075,171L1169,195Z" fill="#5f5f5f" stroke="#5f5f5f" stroke-width="1.51"/><path d="M997,82L1075,171L1125,50Z" fill="#7e7e7e" stroke="#7e7e7e" stroke-width="1.51"/><path d="M1032,-24L1125,50L1141,-25Z" fill="#9f9f9f" stroke="#9f9f9f" stroke-width="1.51"/><path d="M1048,-60L1032,-24L1141,-25Z" fill="#aaaaaa" stroke="#aaaaaa" stroke-width="1.51"/><path d="M1135,-109L1048,-60L1141,-25Z" fill="#afafaf" stroke="#afafaf" stroke-width="1.51"/><path d="M1055,-157L1048,-60L1135,-109Z" fill="#bababa" stroke="#bababa" stroke-width="1.51"/><path d="M1032,-24L997,82L1125,50Z" fill="#959595" stroke="#959595" stroke-width="1.51"/><path d="M1007,-131L1048,-60L1055,-157Z" fill="#bebebe" stroke="#bebebe" stroke-width="1.51"/><path d="M1000,146L1057,192L1075,171Z" fill="#676767" stroke="#676767" stroke-width="1.51"/><path d="M997,82L1000,146L1075,171Z" fill="#777777" stroke="#777777" stroke-width="1.51"/><path d="M765,-134L822,-96L1007,-131Z" fill="#cacaca" stroke="#cacaca" stroke-width="1.51"/><path d="M1000,146L988,191L1057,192Z" fill="#666666" stroke="#666666" stroke-width="1.51"/><path d="M949,-86L1032,-24L1048,-60Z" fill="#b4b4b4" stroke="#b4b4b4" stroke-width="1.51"/><path d="M1007,-131L949,-86L1048,-60Z" fill="#bcbcbc" stroke="#bcbcbc" stroke-width="1.51"/><path d="M359,-149L453,-121L616,-117Z" fill="#e4e4e4" stroke="#e4e4e4" stroke-width="1.51"/><path d="M878,-29L886,60L997,82Z" fill="#9d9d9d" stroke="#9d9d9d" stroke-width="1.51"/><path d="M822,-96L949,-86L1007,-131Z" fill="#c4c4c4" stroke="#c4c4c4" stroke-width="1.51"/><path d="M878,-29L997,82L1032,-24Z" fill="#a4a4a4" stroke="#a4a4a4" stroke-width="1.51"/><path d="M949,-86L878,-29L1032,-24Z" fill="#b5b5b5" stroke="#b5b5b5" stroke-width="1.51"/><path d="M766,207L696,257L928,216Z" fill="#5f5f5f" stroke="#5f5f5f" stroke-width="1.51"/><path d="M997,82L902,154L1000,146Z" fill="#7c7c7c" stroke="#7c7c7c" stroke-width="1.51"/><path d="M902,154L988,191L1000,146Z" fill="#6f6f6f" stroke="#6f6f6f" stroke-width="1.51"/><path d="M886,60L902,154L997,82Z" fill="#888888" stroke="#888888" stroke-width="1.51"/><path d="M902,154L928,216L988,191Z" fill="#666666" stroke="#666666" stroke-width="1.51"/><path d="M878,-29L864,-12L886,60Z" fill="#acacac" stroke="#acacac" stroke-width="1.51"/><path d="M870,180L766,207L928,216Z" fill="#656565" stroke="#656565" stroke-width="1.51"/><path d="M822,-96L878,-29L949,-86Z" fill="#c0c0c0" stroke="#c0c0c0" stroke-width="1.51"/><path d="M902,154L870,180L928,216Z" fill="#6a6a6a" stroke="#6a6a6a" stroke-width="1.51"/><path d="M886,60L795,144L902,154Z" fill="#868686" stroke="#868686" stroke-width="1.51"/><path d="M795,144L870,180L902,154Z" fill="#797979" stroke="#797979" stroke-width="1.51"/><path d="M864,-12L814,14L886,60Z" fill="#a8a8a8" stroke="#a8a8a8" stroke-width="1.51"/><path d="M814,14L795,144L886,60Z" fill="#979797" stroke="#979797" stroke-width="1.51"/><path d="M822,-96L864,-12L878,-29Z" fill="#bcbcbc" stroke="#bcbcbc" stroke-width="1.51"/><path d="M822,-96L814,14L864,-12Z" fill="#bababa" stroke="#bababa" stroke-width="1.51"/><path d="M795,144L766,207L870,180Z" fill="#737373" stroke="#737373" stroke-width="1.51"/><path d="M716,66L729,118L795,144Z" fill="#919191" stroke="#919191" stroke-width="1.51"/><path d="M716,66L795,144L814,14Z" fill="#9b9b9b" stroke="#9b9b9b" stroke-width="1.51"/><path d="M765,-134L700,-75L822,-96Z" fill="#cfcfcf" stroke="#cfcfcf" stroke-width="1.51"/><path d="M700,-75L724,-20L822,-96Z" fill="#c8c8c8" stroke="#c8c8c8" stroke-width="1.51"/><path d="M724,-20L814,14L822,-96Z" fill="#bdbdbd" stroke="#bdbdbd" stroke-width="1.51"/><path d="M724,-20L716,66L814,14Z" fill="#afafaf" stroke="#afafaf" stroke-width="1.51"/><path d="M729,118L766,207L795,144Z" fill="#808080" stroke="#808080" stroke-width="1.51"/><path d="M140,230L92,235L277,237Z" fill="#797979" stroke="#797979" stroke-width="1.51"/><path d="M616,-117L700,-75L765,-134Z" fill="#d6d6d6" stroke="#d6d6d6" stroke-width="1.51"/><path d="M729,118L689,139L766,207Z" fill="#838383" stroke="#838383" stroke-width="1.51"/><path d="M689,139L696,257L766,207Z" fill="#6e6e6e" stroke="#6e6e6e" stroke-width="1.51"/><path d="M648,53L716,66L724,-20Z" fill="#aeaeae" stroke="#aeaeae" stroke-width="1.51"/><path d="M716,66L689,139L729,118Z" fill="#949494" stroke="#949494" stroke-width="1.51"/><path d="M689,139L591,200L696,257Z" fill="#737373" stroke="#737373" stroke-width="1.51"/><path d="M616,31L648,53L724,-20Z" fill="#b5b5b5" stroke="#b5b5b5" stroke-width="1.51"/><path d="M700,-75L615,-70L724,-20Z" fill="#cacaca" stroke="#cacaca" stroke-width="1.51"/><path d="M615,-70L616,31L724,-20Z" fill="#c3c3c3" stroke="#c3c3c3" stroke-width="1.51"/><path d="M648,53L689,139L716,66Z" fill="#9d9d9d" stroke="#9d9d9d" stroke-width="1.51"/><path d="M591,200L504,254L696,257Z" fill="#676767" stroke="#676767" stroke-width="1.51"/><path d="M622,-85L615,-70L700,-75Z" fill="#d1d1d1" stroke="#d1d1d1" stroke-width="1.51"/><path d="M616,-117L622,-85L700,-75Z" fill="#d5d5d5" stroke="#d5d5d5" stroke-width="1.51"/><path d="M648,53L557,137L689,139Z" fill="#979797" stroke="#979797" stroke-width="1.51"/><path d="M557,137L591,200L689,139Z" fill="#888888" stroke="#888888" stroke-width="1.51"/><path d="M616,31L557,137L648,53Z" fill="#a5a5a5" stroke="#a5a5a5" stroke-width="1.51"/><path d="M-4,-137L197,-107L359,-149Z" fill="#f1f1f1" stroke="#f1f1f1" stroke-width="1.51"/><path d="M516,85L557,137L616,31Z" fill="#a3a3a3" stroke="#a3a3a3" stroke-width="1.51"/><path d="M615,-70L462,-49L616,31Z" fill="#cacaca" stroke="#cacaca" stroke-width="1.51"/><path d="M616,-117L615,-70L622,-85Z" fill="#d6d6d6" stroke="#d6d6d6" stroke-width="1.51"/><path d="M453,-121L462,-49L615,-70Z" fill="#d9d9d9" stroke="#d9d9d9" stroke-width="1.51"/><path d="M453,-121L615,-70L616,-117Z" fill="#dbdbdb" stroke="#dbdbdb" stroke-width="1.51"/><path d="M462,-49L516,85L616,31Z" fill="#bbbbbb" stroke="#bbbbbb" stroke-width="1.51"/><path d="M557,137L504,254L591,200Z" fill="#787878" stroke="#787878" stroke-width="1.51"/><path d="M462,-49L443,47L516,85Z" fill="#bcbcbc" stroke="#bcbcbc" stroke-width="1.51"/><path d="M516,85L458,174L557,137Z" fill="#969696" stroke="#969696" stroke-width="1.51"/><path d="M458,174L504,254L557,137Z" fill="#7e7e7e" stroke="#7e7e7e" stroke-width="1.51"/><path d="M-4,-137L135,-105L197,-107Z" fill="#f1f1f1" stroke="#f1f1f1" stroke-width="1.51"/><path d="M443,47L458,174L516,85Z" fill="#a2a2a2" stroke="#a2a2a2" stroke-width="1.51"/><path d="M458,174L371,251L504,254Z" fill="#717171" stroke="#717171" stroke-width="1.51"/><path d="M403,-50L355,18L443,47Z" fill="#c8c8c8" stroke="#c8c8c8" stroke-width="1.51"/><path d="M388,-92L403,-50L453,-121Z" fill="#dfdfdf" stroke="#dfdfdf" stroke-width="1.51"/><path d="M443,47L370,131L458,174Z" fill="#9f9f9f" stroke="#9f9f9f" stroke-width="1.51"/><path d="M453,-121L403,-50L462,-49Z" fill="#dbdbdb" stroke="#dbdbdb" stroke-width="1.51"/><path d="M403,-50L443,47L462,-49Z" fill="#cdcdcd" stroke="#cdcdcd" stroke-width="1.51"/><path d="M370,131L371,251L458,174Z" fill="#858585" stroke="#858585" stroke-width="1.51"/><path d="M359,-149L388,-92L453,-121Z" fill="#e6e6e6" stroke="#e6e6e6" stroke-width="1.51"/><path d="M355,18L370,131L443,47Z" fill="#b2b2b2" stroke="#b2b2b2" stroke-width="1.51"/><path d="M370,131L320,205L371,251Z" fill="#818181" stroke="#818181" stroke-width="1.51"/><path d="M388,-92L348,-65L403,-50Z" fill="#dcdcdc" stroke="#dcdcdc" stroke-width="1.51"/><path d="M348,-65L355,18L403,-50Z" fill="#d4d4d4" stroke="#d4d4d4" stroke-width="1.51"/><path d="M355,18L302,129L370,131Z" fill="#ababab" stroke="#ababab" stroke-width="1.51"/><path d="M359,-149L348,-65L388,-92Z" fill="#e5e5e5" stroke="#e5e5e5" stroke-width="1.51"/><path d="M244,85L302,129L355,18Z" fill="#b2b2b2" stroke="#b2b2b2" stroke-width="1.51"/><path d="M302,129L320,205L370,131Z" fill="#969696" stroke="#969696" stroke-width="1.51"/><path d="M320,205L277,237L371,251Z" fill="#747474" stroke="#747474" stroke-width="1.51"/><path d="M348,-65L258,-46L355,18Z" fill="#d6d6d6" stroke="#d6d6d6" stroke-width="1.51"/><path d="M258,-46L348,-65L359,-149Z" fill="#e3e3e3" stroke="#e3e3e3" stroke-width="1.51"/><path d="M197,-107L258,-46L359,-149Z" fill="#e8e8e8" stroke="#e8e8e8" stroke-width="1.51"/><path d="M258,-46L244,85L355,18Z" fill="#c8c8c8" stroke="#c8c8c8" stroke-width="1.51"/><path d="M244,85L246,103L302,129Z" fill="#a9a9a9" stroke="#a9a9a9" stroke-width="1.51"/><path d="M190,160L277,237L302,129Z" fill="#8f8f8f" stroke="#8f8f8f" stroke-width="1.51"/><path d="M302,129L277,237L320,205Z" fill="#868686" stroke="#868686" stroke-width="1.51"/><path d="M246,103L190,160L302,129Z" fill="#a1a1a1" stroke="#a1a1a1" stroke-width="1.51"/><path d="M156,27L244,85L258,-46Z" fill="#c9c9c9" stroke="#c9c9c9" stroke-width="1.51"/><path d="M190,160L140,230L277,237Z" fill="#808080" stroke="#808080" stroke-width="1.51"/><path d="M197,-107L126,-31L258,-46Z" fill="#e3e3e3" stroke="#e3e3e3" stroke-width="1.51"/><path d="M126,-31L156,27L258,-46Z" fill="#d8d8d8" stroke="#d8d8d8" stroke-width="1.51"/><path d="M244,85L190,160L246,103Z" fill="#a7a7a7" stroke="#a7a7a7" stroke-width="1.51"/><path d="M156,27L190,160L244,85Z" fill="#b1b1b1" stroke="#b1b1b1" stroke-width="1.51"/><path d="M156,27L43,136L190,160Z" fill="#aeaeae" stroke="#aeaeae" stroke-width="1.51"/><path d="M135,-105L126,-31L197,-107Z" fill="#e9e9e9" stroke="#e9e9e9" stroke-width="1.51"/><path d="M43,136L140,230L190,160Z" fill="#949494" stroke="#949494" stroke-width="1.51"/><path d="M-4,-137L68,-92L135,-105Z" fill="#f2f2f2" stroke="#f2f2f2" stroke-width="1.51"/><path d="M43,136L92,235L140,230Z" fill="#888888" stroke="#888888" stroke-width="1.51"/><path d="M126,-31L63,13L156,27Z" fill="#d4d4d4" stroke="#d4d4d4" stroke-width="1.51"/><path d="M63,13L43,136L156,27Z" fill="#c0c0c0" stroke="#c0c0c0" stroke-width="1.51"/><path d="M82,-35L63,13L126,-31Z" fill="#dbdbdb" stroke="#dbdbdb" stroke-width="1.51"/><path d="M82,-35L126,-31L135,-105Z" fill="#e5e5e5" stroke="#e5e5e5" stroke-width="1.51"/><path d="M68,-92L82,-35L135,-105Z" fill="#eaeaea" stroke="#eaeaea" stroke-width="1.51"/><path d="M4,123L43,136L63,13Z" fill="#b6b6b6" stroke="#b6b6b6" stroke-width="1.51"/><path d="M43,136L-41,254L92,235Z" fill="#868686" stroke="#868686" stroke-width="1.51"/><path d="M68,-92L-33,-73L82,-35Z" fill="#e9e9e9" stroke="#e9e9e9" stroke-width="1.51"/><path d="M-33,-73L63,13L82,-35Z" fill="#e0e0e0" stroke="#e0e0e0" stroke-width="1.51"/><path d="M4,123L-41,254L43,136Z" fill="#999999" stroke="#999999" stroke-width="1.51"/><path d="M-55,64L4,123L63,13Z" fill="#c0c0c0" stroke="#c0c0c0" stroke-width="1.51"/><path d="M-4,-137L-33,-73L68,-92Z" fill="#f1f1f1" stroke="#f1f1f1" stroke-width="1.51"/><path d="M-33,-73L-55,64L63,13Z" fill="#d9d9d9" stroke="#d9d9d9" stroke-width="1.51"/><path d="M-115,141L-41,254L4,123Z" fill="#9a9a9a" stroke="#9a9a9a" stroke-width="1.51"/><path d="M-55,64L-115,141L4,123Z" fill="#b2b2b2" stroke="#b2b2b2" stroke-width="1.51"/><path d="M-118,-68L-55,64L-33,-73Z" fill="#e2e2e2" stroke="#e2e2e2" stroke-width="1.51"/><path d="M-119,-138L-33,-73L-4,-137Z" fill="#f6f6f6" stroke="#f6f6f6" stroke-width="1.51"/><path d="M-118,-68L-108,72L-55,64Z" fill="#d2d2d2" stroke="#d2d2d2" stroke-width="1.51"/><path d="M-108,72L-115,141L-55,64Z" fill="#b9b9b9" stroke="#b9b9b9" stroke-width="1.51"/><path d="M-115,141L-143,190L-41,254Z" fill="#909090" stroke="#909090" stroke-width="1.51"/><path d="M-119,-138L-118,-68L-33,-73Z" fill="#f2f2f2" stroke="#f2f2f2" stroke-width="1.51"/><path d="M-143,190L-115,141L-108,72Z" fill="#ababab" stroke="#ababab" stroke-width="1.51"/><path d="M-118,-68L-143,190L-108,72Z" fill="#c3c3c3" stroke="#c3c3c3" stroke-width="1.51"/><path d="M-119,-138L-143,190L-118,-68Z" fill="#dedede" stroke="#dedede" stroke-width="1.51"/></svg>