<svg xmlns="http://www.w3.org/2000/svg" width="1920" height="1080"><path d="M-483,-558L666,-537L1764,-561Z" fill="#d6d6d6" stroke="#d6d6d6" stroke-width="1.51"/><path d="M905,-526L1204,-513L1764,-561Z" fill="#b6b6b6" stroke="#b6b6b6" stroke-width="1.51"/><path d="M666,-537L905,-526L1764,-561Z" fill="#bebebe" stroke="#bebebe" stroke-width="1.51"/><path d="M1732,1600L864,1673L1983,1654Z" fill="#393939" stroke="#393939" stroke-width="1.51"/><path d="M2058,-198L2261,214L2311,-255Z" fill="#767676" stroke="#767676" stroke-width="1.51"/><path d="M2255,1257L2277,1617L2445,983Z" fill="#2a2a2a" stroke="#2a2a2a" stroke-width="1.51"/><path d="M1764,-561L2099,-409L2445,-448Z" fill="#888888" stroke="#888888" stroke-width="1.51"/><path d="M2261,214L1927,583L2462,434Z" fill="#5e5e5e" stroke="#5e5e5e" stroke-width="1.51"/><path d="M1962,846L2445,983L2462,434Z" fill="#494949" stroke="#494949" stroke-width="1.51"/><path d="M1927,583L1962,846L2462,434Z" fill="#585858" stroke="#585858" stroke-width="1.51"/><path d="M2445,-448L2311,-255L2462,434Z" fill="#6d6d6d" stroke="#6d6d6d" stroke-width="1.51"/><path d="M2311,-255L2261,214L2462,434Z" fill="#676767" stroke="#676767" stroke-width="1.51"/><path d="M2061,1207L2255,1257L2445,983Z" fill="#363636" stroke="#363636" stroke-width="1.51"/><path d="M1962,846L2061,1207L2445,983Z" fill="#414141" stroke="#414141" stroke-width="1.51"/><path d="M2099,-409L2311,-255L2445,-448Z" fill="#7c7c7c" stroke="#7c7c7c" stroke-width="1.51"/><path d="M2061,1207L1983,1654L2255,1257Z" fill="#2d2d2d" stroke="#2d2d2d" stroke-width="1.51"/><path d="M1948,232L1927,583L2261,214Z" fill="#6c6c6c" stroke="#6c6c6c" stroke-width="1.51"/><path d="M2058,-198L1948,232L2261,214Z" fill="#767676" stroke="#767676" stroke-width="1.51"/><path d="M2255,1257L1983,1654L2277,1617Z" fill="#212121" stroke="#212121" stroke-width="1.51"/><path d="M2099,-409L2058,-198L2311,-255Z" fill="#7f7f7f" stroke="#7f7f7f" stroke-width="1.51"/><path d="M1410,1498L864,1673L1732,1600Z" fill="#444444" stroke="#444444" stroke-width="1.51"/><path d="M1698,136L1948,232L2058,-198Z" fill="#838383" stroke="#838383" stroke-width="1.51"/><path d="M1732,1600L1983,1654L2061,1207Z" fill="#2f2f2f" stroke="#2f2f2f" stroke-width="1.51"/><path d="M1622,1249L1732,1600L2061,1207Z" fill="#3f3f3f" stroke="#3f3f3f" stroke-width="1.51"/><path d="M1764,-561L2058,-198L2099,-409Z" fill="#8e8e8e" stroke="#8e8e8e" stroke-width="1.51"/><path d="M1764,-561L1607,-154L2058,-198Z" fill="#979797" stroke="#979797" stroke-width="1.51"/><path d="M1607,-154L1698,136L2058,-198Z" fill="#909090" stroke="#909090" stroke-width="1.51"/><path d="M1962,846L1622,1249L2061,1207Z" fill="#4c4c4c" stroke="#4c4c4c" stroke-width="1.51"/><path d="M-483,-558L327,-468L666,-537Z" fill="#e8e8e8" stroke="#e8e8e8" stroke-width="1.51"/><path d="M1698,136L1554,634L1927,583Z" fill="#797979" stroke="#797979" stroke-width="1.51"/><path d="M1698,136L1927,583L1948,232Z" fill="#797979" stroke="#797979" stroke-width="1.51"/><path d="M1760,783L1622,1249L1962,846Z" fill="#5a5a5a" stroke="#5a5a5a" stroke-width="1.51"/><path d="M1927,583L1760,783L1962,846Z" fill="#606060" stroke="#606060" stroke-width="1.51"/><path d="M1554,634L1760,783L1927,583Z" fill="#6c6c6c" stroke="#6c6c6c" stroke-width="1.51"/><path d="M1373,285L1554,634L1698,136Z" fill="#888888" stroke="#888888" stroke-width="1.51"/><path d="M1622,1249L1410,1498L1732,1600Z" fill="#414141" stroke="#414141" stroke-width="1.51"/><path d="M1340,983L1622,1249L1760,783Z" fill="#616161" stroke="#616161" stroke-width="1.51"/><path d="M1554,634L1340,983L1760,783Z" fill="#6d6d6d" stroke="#6d6d6d" stroke-width="1.51"/><path d="M1204,-513L1607,-154L1764,-561Z" fill="#a8a8a8" stroke="#a8a8a8" stroke-width="1.51"/><path d="M1204,-513L1229,-196L1607,-154Z" fill="#adadad" stroke="#adadad" stroke-width="1.51"/><path d="M1340,983L1414,1248L1622,1249Z" fill="#5d5d5d" stroke="#5d5d5d" stroke-width="1.51"/><path d="M1607,-154L1373,285L1698,136Z" fill="#949494" stroke="#949494" stroke-width="1.51"/><path d="M1229,-196L1373,285L1607,-154Z" fill="#a0a0a0" stroke="#a0a0a0" stroke-width="1.51"/><path d="M1414,1248L1410,1498L1622,1249Z" fill="#4f4f4f" stroke="#4f4f4f" stroke-width="1.51"/><path d="M-483,-558L-189,-472L327,-468Z" fill="#f0f0f0" stroke="#f0f0f0" stroke-width="1.51"/><path d="M1373,285L1220,645L1554,634Z" fill="#848484" stroke="#848484" stroke-width="1.51"/><path d="M1220,645L1340,983L1554,634Z" fill="#777777" stroke="#777777" stroke-width="1.51"/><path d="M1220,645L1056,883L1340,983Z" fill="#7a7a7a" stroke="#7a7a7a" stroke-width="1.51"/><path d="M1229,-196L908,265L1373,285Z" fill="#a4a4a4" stroke="#a4a4a4" stroke-width="1.51"/><path d="M861,1230L1410,1498L1414,1248Z" fill="#5a5a5a" stroke="#5a5a5a" stroke-width="1.51"/><path d="M1340,983L861,1230L1414,1248Z" fill="#696969" stroke="#696969" stroke-width="1.51"/><path d="M861,1230L864,1673L1410,1498Z" fill="#565656" stroke="#565656" stroke-width="1.51"/><path d="M1056,883L861,1230L1340,983Z" fill="#757575" stroke="#757575" stroke-width="1.51"/><path d="M948,500L1220,645L1373,285Z" fill="#909090" stroke="#909090" stroke-width="1.51"/><path d="M908,265L948,500L1373,285Z" fill="#9c9c9c" stroke="#9c9c9c" stroke-width="1.51"/><path d="M954,-200L908,265L1229,-196Z" fill="#b2b2b2" stroke="#b2b2b2" stroke-width="1.51"/><path d="M905,-526L954,-200L1204,-513Z" fill="#c0c0c0" stroke="#c0c0c0" stroke-width="1.51"/><path d="M1204,-513L954,-200L1229,-196Z" fill="#b7b7b7" stroke="#b7b7b7" stroke-width="1.51"/><path d="M948,500L1056,883L1220,645Z" fill="#898989" stroke="#898989" stroke-width="1.51"/><path d="M708,813L679,1161L861,1230Z" fill="#828282" stroke="#828282" stroke-width="1.51"/><path d="M861,1230L698,1506L864,1673Z" fill="#616161" stroke="#616161" stroke-width="1.51"/><path d="M715,585L708,813L948,500Z" fill="#999999" stroke="#999999" stroke-width="1.51"/><path d="M635,104L908,265L954,-200Z" fill="#b7b7b7" stroke="#b7b7b7" stroke-width="1.51"/><path d="M629,-66L635,104L954,-200Z" fill="#c1c1c1" stroke="#c1c1c1" stroke-width="1.51"/><path d="M948,500L708,813L1056,883Z" fill="#8d8d8d" stroke="#8d8d8d" stroke-width="1.51"/><path d="M708,813L861,1230L1056,883Z" fill="#818181" stroke="#818181" stroke-width="1.51"/><path d="M908,265L715,585L948,500Z" fill="#a0a0a0" stroke="#a0a0a0" stroke-width="1.51"/><path d="M905,-526L666,-537L954,-200Z" fill="#c9c9c9" stroke="#c9c9c9" stroke-width="1.51"/><path d="M666,-537L629,-66L954,-200Z" fill="#c9c9c9" stroke="#c9c9c9" stroke-width="1.51"/><path d="M698,1506L153,1626L864,1673Z" fill="#636363" stroke="#636363" stroke-width="1.51"/><path d="M635,104L715,585L908,265Z" fill="#aeaeae" stroke="#aeaeae" stroke-width="1.51"/><path d="M679,1161L698,1506L861,1230Z" fill="#717171" stroke="#717171" stroke-width="1.51"/><path d="M327,-468L629,-66L666,-537Z" fill="#d6d6d6" stroke="#d6d6d6" stroke-width="1.51"/><path d="M679,1161L228,1267L698,1506Z" fill="#797979" stroke="#797979" stroke-width="1.51"/><path d="M362,959L679,1161L708,813Z" fill="#8f8f8f" stroke="#8f8f8f" stroke-width="1.51"/><path d="M270,480L362,959L708,813Z" fill="#a1a1a1" stroke="#a1a1a1" stroke-width="1.51"/><path d="M270,480L708,813L715,585Z" fill="#a4a4a4" stroke="#a4a4a4" stroke-width="1.51"/><path d="M635,104L270,480L715,585Z" fill="#b4b4b4" stroke="#b4b4b4" stroke-width="1.51"/><path d="M191,202L270,480L635,104Z" fill="#c2c2c2" stroke="#c2c2c2" stroke-width="1.51"/><path d="M228,1267L153,1626L698,1506Z" fill="#727272" stroke="#727272" stroke-width="1.51"/><path d="M327,-468L213,-120L629,-66Z" fill="#d6d6d6" stroke="#d6d6d6" stroke-width="1.51"/><path d="M362,959L228,1267L679,1161Z" fill="#8b8b8b" stroke="#8b8b8b" stroke-width="1.51"/><path d="M629,-66L213,-120L635,104Z" fill="#cbcbcb" stroke="#cbcbcb" stroke-width="1.51"/><path d="M213,-120L191,202L635,104Z" fill="#cdcdcd" stroke="#cdcdcd" stroke-width="1.51"/><path d="M-89,615L-51,890L270,480Z" fill="#b3b3b3" stroke="#b3b3b3" stroke-width="1.51"/><path d="M-31,-192L213,-120L327,-468Z" fill="#e0e0e0" stroke="#e0e0e0" stroke-width="1.51"/><path d="M270,480L-51,890L362,959Z" fill="#a8a8a8" stroke="#a8a8a8" stroke-width="1.51"/><path d="M-51,890L228,1267L362,959Z" fill="#999999" stroke="#999999" stroke-width="1.51"/><path d="M-51,890L-101,1143L228,1267Z" fill="#9a9a9a" stroke="#9a9a9a" stroke-width="1.51"/><path d="M-189,-472L-31,-192L327,-468Z" fill="#e8e8e8" stroke="#e8e8e8" stroke-width="1.51"/><path d="M-154,1594L153,1626L228,1267Z" fill="#797979" stroke="#797979" stroke-width="1.51"/><path d="M191,202L-153,282L270,480Z" fill="#c7c7c7" stroke="#c7c7c7" stroke-width="1.51"/><path d="M-153,282L-89,615L270,480Z" fill="#c0c0c0" stroke="#c0c0c0" stroke-width="1.51"/><path d="M-31,-192L-153,282L191,202Z" fill="#d6d6d6" stroke="#d6d6d6" stroke-width="1.51"/><path d="M-31,-192L191,202L213,-120Z" fill="#d9d9d9" stroke="#d9d9d9" stroke-width="1.51"/><path d="M-101,1143L-154,1594L228,1267Z" fill="#888888" stroke="#888888" stroke-width="1.51"/><path d="M-404,1196L-154,1594L-101,1143Z" fill="#909090" stroke="#909090" stroke-width="1.51"/><path d="M-89,615L-547,811L-51,890Z" fill="#b4b4b4" stroke="#b4b4b4" stroke-width="1.51"/><path d="M-189,-472L-481,-247L-31,-192Z" fill="#ededed" stroke="#ededed" stroke-width="1.51"/><path d="M-454,250L-153,282L-31,-192Z" fill="#dbdbdb" stroke="#dbdbdb" stroke-width="1.51"/><path d="M-481,-247L-454,250L-31,-192Z" fill="#e6e6e6" stroke="#e6e6e6" stroke-width="1.51"/><path d="M-404,1196L-481,1491L-154,1594Z" fill="#888888" stroke="#888888" stroke-width="1.51"/><path d="M-153,282L-472,557L-89,615Z" fill="#c6c6c6" stroke="#c6c6c6" stroke-width="1.51"/><path d="M-404,1196L-101,1143L-51,890Z" fill="#a1a1a1" stroke="#a1a1a1" stroke-width="1.51"/><path d="M-547,811L-404,1196L-51,890Z" fill="#aaaaaa" stroke="#aaaaaa" stroke-width="1.51"/><path d="M-472,557L-547,811L-89,615Z" fill="#bebebe" stroke="#bebebe" stroke-width="1.51"/><path d="M-454,250L-472,557L-153,282Z" fill="#d0d0d0" stroke="#d0d0d0" stroke-width="1.51"/><path d="M-483,-558L-481,-247L-189,-472Z" fill="#f4f4f4" stroke="#f4f4f4" stroke-width="1.51"/><path d="M-547,811L-481,1491L-404,1196Z" fill="#a1a1a1" stroke="#a1a1a1" stroke-width="1.51"/><path d="M-547,811L-472,557L-454,250Z" fill="#c7c7c7" stroke="#c7c7c7" stroke-width="1.51"/><path d="M-481,-247L-547,811L-454,250Z" fill="#d9d9d9" stroke="#d9d9d9" stroke-width="1.51"/><path d="M-483,-558L-547,811L-481,-247Z" fill="#e6e6e6" stroke="#e6e6e6" stroke-width="1.51"/></svg>